<svg width="140" height="61" fill="none" xmlns="http://www.w3.org/2000/svg"><path fill-rule="evenodd" clip-rule="evenodd" d="M8.022 0a2.406 2.406 0 00-2.407 2.406V52.14a2.406 2.406 0 002.407 2.407h49.733a2.406 2.406 0 002.407-2.407v-9.988a7.267 7.267 0 01-1.091 3.09c-.738 1.205-1.82 2.164-3.248 2.878-1.426.713-3.111 1.07-5.055 1.07-1.894 0-3.591-.308-5.092-.923-1.5-.615-2.706-1.525-3.616-2.73-.886-1.206-1.353-2.657-1.402-4.354h6.715c.099.959.431 1.697.997 2.214.566.492 1.304.738 2.214.738.934 0 1.672-.21 2.214-.628.54-.442.811-1.045.811-1.808 0-.64-.22-1.168-.664-1.586-.418-.419-.947-.763-1.586-1.034-.615-.27-1.5-.578-2.657-.922-1.673-.517-3.038-1.033-4.096-1.55-1.058-.516-1.968-1.279-2.73-2.288-.763-1.008-1.144-2.324-1.144-3.948 0-2.41.873-4.292 2.62-5.645 1.746-1.378 4.022-2.067 6.826-2.067 2.853 0 5.153.69 6.9 2.067 1.747 1.353 2.681 3.247 2.804 5.682h-6.826c-.05-.836-.357-1.488-.922-1.956-.566-.492-1.292-.738-2.178-.738-.762 0-1.377.21-1.845.628-.467.393-.7.971-.7 1.734 0 .836.393 1.488 1.18 1.956.787.467 2.017.971 3.69 1.513 1.673.565 3.026 1.106 4.059 1.623 1.058.517 1.968 1.267 2.73 2.25.6.774.963 1.72 1.092 2.842V2.406A2.406 2.406 0 0057.755 0H8.022zm29.753 40.666V23.028h-6.31v17.638c0 .935-.209 1.648-.627 2.14-.418.492-1.009.738-1.771.738-.837 0-1.476-.27-1.919-.812-.443-.565-.664-1.39-.664-2.472h-6.273c0 2.854.824 5.055 2.472 6.605 1.648 1.55 3.838 2.325 6.568 2.325 2.608 0 4.674-.738 6.2-2.214 1.55-1.476 2.324-3.58 2.324-6.31z" fill="#fff"/><path d="M47.724 60.084H8.12A8.121 8.121 0 010 51.964V10.467C0 9.819.548 9.27 1.196 9.27c.647 0 1.195.548 1.195 1.195v41.498a5.73 5.73 0 005.73 5.728h39.603c.648 0 1.196.548 1.196 1.196-.05.648-.548 1.196-1.196 1.196z" fill="url(#paint0_linear)"/><path d="M73.123 43.581v5.35h-3.21c-2.288 0-4.072-.553-5.35-1.66-1.28-1.132-1.92-2.964-1.92-5.498v-8.192h-2.509v-5.24h2.51v-5.018h6.31v5.019h4.132v5.24h-4.133v8.265c0 .615.148 1.058.443 1.328.295.27.787.406 1.476.406h2.25zM73.907 38.6c0-2.116.394-3.973 1.18-5.572.813-1.599 1.907-2.829 3.285-3.69 1.377-.861 2.915-1.291 4.612-1.291 1.452 0 2.718.295 3.8.885 1.108.59 1.956 1.365 2.547 2.325v-2.915h6.31v20.59h-6.31v-2.916c-.615.96-1.476 1.735-2.583 2.325-1.083.59-2.35.886-3.8.886-1.673 0-3.199-.43-4.576-1.292-1.378-.885-2.472-2.128-3.284-3.727-.787-1.623-1.181-3.493-1.181-5.608zm15.424.037c0-1.575-.443-2.817-1.329-3.727-.86-.91-1.918-1.365-3.173-1.365-1.254 0-2.325.455-3.21 1.365-.861.885-1.291 2.115-1.291 3.69 0 1.574.43 2.829 1.29 3.763.886.91 1.957 1.366 3.211 1.366 1.255 0 2.313-.455 3.174-1.366.885-.91 1.328-2.152 1.328-3.726zM97.475 38.637c0-2.14.43-4.01 1.291-5.61.886-1.598 2.104-2.828 3.653-3.689 1.575-.861 3.371-1.291 5.388-1.291 2.583 0 4.735.676 6.457 2.029 1.747 1.353 2.89 3.26 3.432 5.72h-6.716c-.566-1.575-1.66-2.362-3.284-2.362-1.156 0-2.079.455-2.767 1.365-.689.886-1.034 2.165-1.034 3.838 0 1.672.345 2.964 1.034 3.874.688.886 1.611 1.328 2.767 1.328 1.624 0 2.718-.787 3.284-2.361h6.716c-.542 2.41-1.685 4.305-3.432 5.682-1.747 1.378-3.899 2.067-6.457 2.067-2.017 0-3.813-.43-5.388-1.292-1.549-.86-2.767-2.09-3.653-3.69-.86-1.599-1.291-3.468-1.291-5.608zM132.177 48.931l-6.272-8.634v8.635h-6.31V21.625h6.31v15.092l6.236-8.376h7.785l-8.56 10.331L140 48.931h-7.823z" fill="#fff"/><defs><linearGradient id="paint0_linear" x1="-.016" y1="34.696" x2="48.882" y2="34.696" gradientUnits="userSpaceOnUse"><stop stop-color="#40CBF6"/><stop offset="1" stop-color="#82C041"/></linearGradient></defs></svg>